HIERARCHY
ROOT Hips
{
	OFFSET 0.000000 88.474243 0.000000
	CHANNELS 6 Xposition Yposition Zposition Zrotation Yrotation Xrotation 
	JOINT Hips_Spine
	{
		OFFSET 0.000000 0.000000 0.000000
		CHANNELS 3 Zrotation Yrotation Xrotation
		JOINT Spine
		{
			OFFSET 0.005100 8.711998 -0.691000
			CHANNELS 3 Zrotation Yrotation Xrotation
			JOINT Spine1
			{
				OFFSET -0.009200 8.660301 -1.275000
				CHANNELS 3 Zrotation Yrotation Xrotation
				JOINT Spine2
				{
					OFFSET 0.006300 9.852501 -1.857000
					CHANNELS 3 Zrotation Yrotation Xrotation
					JOINT Spine2_Neck
					{
						OFFSET 0.000000 0.000000 0.000000
						CHANNELS 3 Zrotation Yrotation Xrotation
						JOINT Neck
						{
							OFFSET 0.016300 11.420799 -0.263300
							CHANNELS 3 Zrotation Yrotation Xrotation
							End Site #name: Head
							{
								OFFSET -0.019200 9.262405 2.362500
							}
						}
					}
					JOINT Spine2_LeftShoulder
					{
						OFFSET 0.000000 0.000000 0.000000
						CHANNELS 3 Zrotation Yrotation Xrotation
						JOINT LeftShoulder
						{
							OFFSET 5.616900 6.732201 -0.345700
							CHANNELS 3 Zrotation Yrotation Xrotation
							JOINT LeftArm
							{
								OFFSET 10.664888 -0.183372 -2.440700
								CHANNELS 3 Zrotation Yrotation Xrotation
								JOINT LeftForeArm
								{
									OFFSET 27.459126 0.000000 0.000000
									CHANNELS 3 Zrotation Yrotation Xrotation
									End Site #name: LeftHand
									{
										OFFSET 21.306858 0.000000 0.000000
									}
								}
							}
						}
					}
					JOINT Spine2_RightShoulder
					{
						OFFSET 0.000000 0.000000 0.000000
						CHANNELS 3 Zrotation Yrotation Xrotation
						JOINT RightShoulder
						{
							OFFSET -5.580300 6.737503 -0.344400
							CHANNELS 3 Zrotation Yrotation Xrotation
							JOINT RightArm
							{
								OFFSET -10.679335 -0.188484 -2.383900
								CHANNELS 3 Zrotation Yrotation Xrotation
								JOINT RightForeArm
								{
									OFFSET -27.503529 0.000000 0.000000
									CHANNELS 3 Zrotation Yrotation Xrotation
									End Site #name: RightHand
									{
										OFFSET -21.306808 0.000000 0.000000
									}
								}
							}
						}
					}
				}
			}
		}
	}
	JOINT Hips_LeftUpLeg
	{
		OFFSET 0.000000 0.000000 0.000000
		CHANNELS 3 Zrotation Yrotation Xrotation
		JOINT LeftUpLeg
		{
			OFFSET 6.857700 -6.739601 0.312100
			CHANNELS 3 Zrotation Yrotation Xrotation
			JOINT LeftLeg
			{
				OFFSET -0.367590 -34.731552 -4.572400
				CHANNELS 3 Zrotation Yrotation Xrotation
				End Site #name: LeftFoot
				{
					OFFSET 0.367590 -34.656704 -6.067400
				}
			}
		}
	}
	JOINT Hips_RightUpLeg
	{
		OFFSET 0.000000 0.000000 0.000000
		CHANNELS 3 Zrotation Yrotation Xrotation
		JOINT RightUpLeg
		{
			OFFSET -6.876100 -6.733299 0.301000
			CHANNELS 3 Zrotation Yrotation Xrotation
			JOINT RightLeg
			{
				OFFSET 0.347353 -34.795158 -4.515900
				CHANNELS 3 Zrotation Yrotation Xrotation
				End Site #name: RightFoot
				{
					OFFSET -0.347353 -34.589367 -6.070300
				}
			}
		}
	}
}
MOTION
Frames: 6
Frame Time: 0.041667
0.229433 0.009992 0.008468 0.121301 10.220791 -5.658382 0.000000 0.000000 0.000000 -0.546792 2.645080 2.651243 -1.516285 1.447455 2.259136 0.000000 0.000000 0.000000 -2.060987 1.134806 0.052332 -1.927206 0.598482 -0.252919 -2.713899 1.274683 2.054427 -19.556044 2.309714 0.289487 -42.028625 -17.572432 32.632291 -0.043186 -28.632544 -0.452909 -1.733532 1.349782 1.397754 12.906969 5.513973 4.035265 69.155185 2.567775 16.515718 -0.025851 29.793515 0.816167 -0.000000 0.000000 0.000000 -0.699062 6.168897 -17.720848 3.934795 10.809942 25.365973 0.000000 0.000000 0.000000 -0.651406 -8.529639 -6.600618 -2.729241 -4.682693 14.148782 
0.990014 -0.055294 -0.050689 1.353887 8.853541 -5.919364 0.000000 0.000000 0.000000 -1.766485 1.383525 0.428151 -1.791475 1.797575 2.532200 0.000000 0.000000 0.000000 -2.219456 1.477475 1.569103 -0.134017 -1.482128 3.149242 -1.813296 1.678123 2.758356 -16.186694 -2.852864 1.648923 -37.757315 -15.934904 34.090502 -0.037136 -28.949517 0.119445 -2.483947 1.420826 2.390944 14.323105 5.144149 1.884744 67.258748 5.424707 4.486330 0.245785 24.974171 0.229183 -0.000000 0.000000 -0.000000 -2.941131 5.088148 -15.946430 3.403412 9.057313 24.480526 -0.000000 -0.000000 -0.000000 -3.798003 -11.322044 -6.472337 -2.495265 -3.468175 14.298360 
1.635219 -0.135419 -0.154274 1.968208 8.489514 -5.930759 0.000000 0.000000 0.000000 -1.859887 1.510144 0.767185 -1.556605 2.108476 2.417495 0.000000 0.000000 0.000000 -2.113899 1.813213 1.565946 0.067159 -1.422405 2.405513 -1.605054 2.126308 2.816365 -17.424581 -0.903681 1.496458 -36.400334 -12.472802 28.649571 -0.173422 -25.520556 0.012351 -2.245661 2.191547 2.500731 14.385393 5.127146 1.773774 66.847835 1.479849 7.023620 0.157774 28.669870 0.119389 -0.000000 0.000000 -0.000000 -4.401355 4.695271 -16.013261 3.212265 8.614470 25.115478 -0.000000 -0.000000 0.000000 -5.706446 -12.452345 -6.464472 -2.810780 -5.555462 15.067687 
2.214515 -0.207725 -0.245600 2.196376 7.947397 -5.746882 0.000000 0.000000 0.000000 -2.005481 1.545201 1.075280 -1.524525 2.294995 2.601291 0.000000 0.000000 0.000000 -1.974461 2.006903 1.771354 0.302475 -1.814887 4.284456 -1.542169 2.307689 2.881894 -17.811189 -1.697923 1.754627 -38.360444 -13.404824 25.495070 -0.185813 -23.017141 0.020712 -2.031675 2.497020 2.728925 13.787890 5.063677 1.816724 66.780150 2.794929 8.895681 0.077477 33.238336 0.108572 -0.000000 0.000000 -0.000000 -5.218596 4.531289 -16.390497 3.071439 8.176440 25.807270 -0.000000 0.000000 0.000000 -6.833750 -12.608010 -7.219817 -2.803596 -6.841051 16.161613 
2.728992 -0.255539 -0.308535 2.206758 7.737358 -5.678363 0.000000 0.000000 0.000000 -2.179579 1.639165 1.169880 -1.594467 2.510735 2.670604 0.000000 0.000000 0.000000 -2.067353 2.193912 1.903763 0.673893 -2.187275 6.282150 -1.601760 2.456092 2.955701 -18.048736 -2.134434 1.943640 -38.817162 -13.984979 24.520849 -0.197556 -21.119628 0.002891 -2.149951 2.778192 2.840582 13.537671 5.218429 1.915060 67.238622 4.946941 8.991972 0.042840 35.930262 0.135565 -0.000000 0.000000 -0.000000 -5.661722 4.427697 -16.457395 2.991853 8.073593 26.233953 -0.000000 0.000000 -0.000000 -7.676945 -11.692406 -7.888499 -2.909485 -7.431458 16.660392 
3.225144 -0.296569 -0.360981 2.182040 7.798008 -5.771161 0.000000 0.000000 0.000000 -2.262686 1.686649 1.257926 -1.704124 2.606694 2.704238 0.000000 0.000000 0.000000 -2.180081 2.250822 2.030513 1.197078 -2.549749 7.788608 -1.678726 2.534206 3.076867 -18.231887 -2.397001 2.151382 -38.147822 -14.297381 24.356719 -0.178688 -20.089044 -0.030779 -2.288351 2.877022 2.900491 13.681093 5.593129 2.008149 67.837617 6.948716 7.500639 -0.019153 33.059702 0.131968 -0.000000 0.000000 -0.000000 -5.992345 4.379252 -16.324544 2.906383 8.189982 26.503315 -0.000000 0.000000 -0.000000 -8.356340 -10.505149 -7.465251 -2.802054 -7.892338 17.384908 
